<svg xmlns="http://www.w3.org/2000/svg" viewBox="0 0 400 300" width="406" height="306" class="illustration styles_illustrationTablet__1DWOa"><g id="_255_rain_outline" data-name="#255_rain_outline"><path d="M293.1,150A93.1,93.1,0,1,1,200,56.9,92.81,92.81,0,0,1,293.1,150Z" fill="#68e1fd"></path><path d="M200,244.1a94.12,94.12,0,1,1,65.17-26.23A93.61,93.61,0,0,1,200,244.1Zm0-186.2A92.1,92.1,0,1,0,292.1,150,92.21,92.21,0,0,0,200,57.9Z" fill="#093f68"></path><path d="M123.81,152.89H275.34s5.48-13.18-1.84-24.29C260.66,109.12,245,115.94,245,115.94,243,105,235.54,95.71,226.41,92.65s-19.56.25-26.17,8.29c-1.29-10.66-9.82-19-18.89-20s-18.15,4.39-24,12.61-8.87,18.94-9.84,29.66c-7.61-5.45-17.8.94-22.63,9.77-2.61,4.76-4.31,10.72-2.77,16.08A15.18,15.18,0,0,0,123.81,152.89Z" fill="#fff"></path><path d="M275.34,153.89H123.81a1,1,0,0,1-.85-.47,15.8,15.8,0,0,1-1.85-4.1c-1.91-6.63,1-13.39,2.85-16.83,3.35-6.13,8.84-10.71,14.33-12a11.89,11.89,0,0,1,8.34,1c1.25-11.42,4.65-21.27,9.86-28.55,6.48-9,16-14,25-13,9.31,1.06,17.34,9,19.42,18.78,6.87-7.16,17-10,25.85-7,9.1,3,16.64,12.18,19,22.94,4-1.16,17.43-3.48,28.56,13.41,7.53,11.42,2.17,24.66,1.93,25.22A1,1,0,0,1,275.34,153.89Zm-151-2H274.64c.93-2.68,4.08-13.55-2-22.74-12.19-18.5-26.63-12.55-27.24-12.29a1,1,0,0,1-.87,0,1,1,0,0,1-.51-.7c-2-10.55-9.2-19.6-17.94-22.53s-18.77.29-25.09,8a1,1,0,0,1-1,.32,1,1,0,0,1-.71-.84c-1.18-9.71-9.09-18.12-18-19.13-8.2-.94-17.06,3.74-23.11,12.2-5.25,7.33-8.59,17.41-9.66,29.16a1,1,0,0,1-.58.82,1,1,0,0,1-1-.1,9.69,9.69,0,0,0-8.14-1.53c-4.87,1.11-10,5.42-13,11-1.73,3.17-4.39,9.38-2.68,15.32A13.48,13.48,0,0,0,124.37,151.89Z" fill="#093f68"></path><path d="M175,162.18a1,1,0,0,1-.86-1.5l1.74-3a1,1,0,0,1,1.74,1l-1.75,3A1,1,0,0,1,175,162.18Z" fill="#093f68"></path><path d="M150.32,205.13a1,1,0,0,1-.5-.14,1,1,0,0,1-.36-1.36l3.39-5.9a1,1,0,0,1,1.73,1l-3.39,5.9A1,1,0,0,1,150.32,205.13Zm8.24-14.32a1,1,0,0,1-.5-.13,1,1,0,0,1-.37-1.37l3.39-5.89a1,1,0,1,1,1.73,1l-3.39,5.9A1,1,0,0,1,158.56,190.81Zm8.23-14.32a1,1,0,0,1-.5-.13,1,1,0,0,1-.37-1.36l3.39-5.9a1,1,0,1,1,1.74,1L167.66,176A1,1,0,0,1,166.79,176.49Z" fill="#093f68"></path><path d="M143.73,216.58a1,1,0,0,1-.49-.13,1,1,0,0,1-.37-1.37l1.74-3a1,1,0,1,1,1.74,1l-1.75,3A1,1,0,0,1,143.73,216.58Z" fill="#093f68"></path><path d="M203,165.22a.93.93,0,0,1-.48-.12,1,1,0,0,1-.4-1.35l1.67-3.08a1,1,0,0,1,1.35-.4,1,1,0,0,1,.41,1.35l-1.67,3.08A1,1,0,0,1,203,165.22Z" fill="#093f68"></path><path d="M173.87,219.1a1,1,0,0,1-.47-.12,1,1,0,0,1-.41-1.36l3-5.55a1,1,0,1,1,1.75,1l-3,5.54A1,1,0,0,1,173.87,219.1Zm7.29-13.47a1,1,0,0,1-.87-1.48l3-5.54a1,1,0,0,1,1.35-.41,1,1,0,0,1,.41,1.36l-3,5.54A1,1,0,0,1,181.16,205.63Zm7.3-13.47A1,1,0,0,1,188,192a1,1,0,0,1-.4-1.36l3-5.54a1,1,0,0,1,1.76,1l-3,5.55A1,1,0,0,1,188.46,192.16Zm7.29-13.47a1,1,0,0,1-.48-.12,1,1,0,0,1-.4-1.35l3-5.55a1,1,0,0,1,1.76,1l-3,5.55A1,1,0,0,1,195.75,178.69Z" fill="#093f68"></path><path d="M167.92,230.1a1,1,0,0,1-.48-.12,1,1,0,0,1-.4-1.36l1.66-3.08a1,1,0,1,1,1.76,1l-1.66,3.07A1,1,0,0,1,167.92,230.1Z" fill="#093f68"></path><path d="M237.84,163.15a1,1,0,0,1-.88-1.48l1.68-3.07a1,1,0,0,1,1.36-.39,1,1,0,0,1,.4,1.35l-1.69,3.07A1,1,0,0,1,237.84,163.15Z" fill="#093f68"></path><path d="M206.32,220.64a.91.91,0,0,1-.48-.13,1,1,0,0,1-.4-1.35l3.25-5.92a1,1,0,1,1,1.75,1l-3.25,5.92A1,1,0,0,1,206.32,220.64Zm7.88-14.37a.94.94,0,0,1-.48-.13,1,1,0,0,1-.4-1.35l3.25-5.92a1,1,0,0,1,1.35-.4,1,1,0,0,1,.4,1.36l-3.24,5.92A1,1,0,0,1,214.2,206.27Zm7.88-14.38a1,1,0,0,1-.48-.12,1,1,0,0,1-.4-1.36l3.25-5.91a1,1,0,0,1,1.35-.4,1,1,0,0,1,.4,1.36L223,191.38A1,1,0,0,1,222.08,191.89ZM230,177.52a1,1,0,0,1-.88-1.48l3.25-5.92a1,1,0,0,1,1.75,1L230.83,177A1,1,0,0,1,230,177.52Z" fill="#093f68"></path><path d="M200,232.16a1,1,0,0,1-.48-.12,1,1,0,0,1-.4-1.36l1.69-3.07a1,1,0,0,1,1.75,1l-1.68,3.07A1,1,0,0,1,200,232.16Z" fill="#093f68"></path><path d="M267.56,163a.93.93,0,0,1-.46-.12,1,1,0,0,1-.43-1.35l1.62-3.1a1,1,0,0,1,1.77.93l-1.62,3.1A1,1,0,0,1,267.56,163Z" fill="#093f68"></path><path d="M241.78,212.39a1,1,0,0,1-.47-.11,1,1,0,0,1-.42-1.35l3.54-6.78a1,1,0,1,1,1.77.92l-3.54,6.78A1,1,0,0,1,241.78,212.39Zm8.59-16.48a1,1,0,0,1-.46-.11,1,1,0,0,1-.43-1.35l3.54-6.78a1,1,0,1,1,1.78.92l-3.54,6.79A1,1,0,0,1,250.37,195.91ZM259,179.44a1,1,0,0,1-.88-1.47l3.54-6.78a1,1,0,1,1,1.77.92l-3.54,6.79A1,1,0,0,1,259,179.44Z" fill="#093f68"></path><path d="M235.1,225.19a1.11,1.11,0,0,1-.46-.11,1,1,0,0,1-.42-1.35l1.61-3.11a1,1,0,0,1,1.78.93l-1.62,3.1A1,1,0,0,1,235.1,225.19Z" fill="#093f68"></path><path d="M141.92,165.14a1,1,0,0,1-.52-.15,1,1,0,0,1-.34-1.37l1.82-3a1,1,0,1,1,1.71,1l-1.82,3A1,1,0,0,1,141.92,165.14Z" fill="#093f68"></path><path d="M133.49,179a1,1,0,0,1-.52-.15,1,1,0,0,1-.34-1.37l3.47-5.71a1,1,0,1,1,1.71,1l-3.47,5.71A1,1,0,0,1,133.49,179Z" fill="#093f68"></path><path d="M126.71,190.16a1,1,0,0,1-.52-.15,1,1,0,0,1-.34-1.37l1.82-3a1,1,0,1,1,1.71,1l-1.82,3A1,1,0,0,1,126.71,190.16Z" fill="#093f68"></path><path d="M139.29,136.1s7.88-16.19,23.65-9.48" fill="#fff"></path><path d="M139.28,137.1a1,1,0,0,1-.43-.1,1,1,0,0,1-.46-1.34c.08-.17,8.49-17,24.94-10a1,1,0,1,1-.79,1.84c-6.14-2.61-11.75-1.93-16.66,2a23.52,23.52,0,0,0-5.7,7A1,1,0,0,1,139.28,137.1Z" fill="#093f68"></path><path d="M235.1,116.85s12.77-5.38,19.25,13.7" fill="#fff"></path><path d="M254.35,131.55a1,1,0,0,1-.95-.68c-2.23-6.58-5.44-10.86-9.53-12.71a11.35,11.35,0,0,0-8.38-.39,1,1,0,0,1-1.31-.54,1,1,0,0,1,.53-1.3,13.24,13.24,0,0,1,9.95.39c4.63,2.08,8.21,6.76,10.64,13.91a1,1,0,0,1-.63,1.26A.91.91,0,0,1,254.35,131.55Z" fill="#093f68"></path><circle cx="187.53" cy="115.25" r="2.94" fill="#093f68"></circle><path d="M187.53,119.19a3.94,3.94,0,1,1,3.94-3.94A3.94,3.94,0,0,1,187.53,119.19Zm0-5.88a1.94,1.94,0,1,0,1.94,1.94A1.94,1.94,0,0,0,187.53,113.31Z" fill="#093f68"></path><circle cx="216.96" cy="115.25" r="2.94" fill="#093f68"></circle><path d="M217,119.19a3.94,3.94,0,1,1,3.94-3.94A3.95,3.95,0,0,1,217,119.19Zm0-5.88a1.94,1.94,0,1,0,1.94,1.94A2,2,0,0,0,217,113.31Z" fill="#093f68"></path><path d="M200.92,132.77a18.67,18.67,0,0,1-3.4-.28,1,1,0,0,1,.41-2,19,19,0,0,0,8.23-.49c.47-.14.51-.33.54-.42.34-1.39-2.64-5.35-5.6-8.23a1,1,0,0,1,1.39-1.43c1.17,1.13,6.94,6.94,6.15,10.14a2.56,2.56,0,0,1-1.92,1.86A20.38,20.38,0,0,1,200.92,132.77Z" fill="#093f68"></path><path d="M222.25,138.68h-39.7a1,1,0,0,1,0-2h39.7a1,1,0,0,1,0,2Z" fill="#093f68"></path></g></svg>