<?xml version="1.0" encoding="UTF-8"?>
<!DOCTYPE svg PUBLIC "-//W3C//DTD SVG 1.1//EN" "http://www.w3.org/Graphics/SVG/1.1/DTD/svg11.dtd">
<!-- Creator: CorelDRAW 2021 (64-Bit) -->
<svg xmlns="http://www.w3.org/2000/svg" xml:space="preserve" width="512px" height="512px" version="1.1" shape-rendering="geometricPrecision" text-rendering="geometricPrecision" image-rendering="optimizeQuality" fill-rule="evenodd" clip-rule="evenodd"
viewBox="0 0 512 512"
 xmlns:xlink="http://www.w3.org/1999/xlink"
 xmlns:xodm="http://www.corel.com/coreldraw/odm/2003">
 <g id="Layer_x0020_1">
  <metadata id="CorelCorpID_0Corel-Layer"/>
  <path fill="black" fill-rule="nonzero" d="M255.99 0c70.43,0 134.44,28.8 180.82,75.19 46.39,46.38 75.19,110.39 75.19,180.8 0,70.43 -28.8,134.44 -75.19,180.82 -46.38,46.39 -110.39,75.19 -180.8,75.19 -70.43,0 -134.44,-28.8 -180.82,-75.19 -46.39,-46.38 -75.19,-110.39 -75.19,-180.8 0,-70.43 28.8,-134.44 75.19,-180.82 46.38,-46.39 110.39,-75.19 180.8,-75.19zm-132.36 202.21c0,-6.16 1.51,-11.72 4.57,-16.77 3.01,-5.05 7.03,-9.1 12.04,-12.12 5,-3.02 10.53,-4.54 16.57,-4.54 6,0 11.4,1.52 16.29,4.54 4.93,3.02 8.83,7.07 11.77,12.12 2.98,5.05 4.45,10.57 4.45,16.65 0,6.12 -1.47,11.68 -4.45,16.69 -2.94,5.01 -6.84,8.98 -11.77,11.93 -4.89,2.97 -10.29,4.45 -16.29,4.45 -6.04,0 -11.57,-1.48 -16.57,-4.45 -5.01,-2.95 -9.03,-6.92 -12.04,-11.93 -3.06,-5.01 -4.57,-10.53 -4.57,-16.57zm133.61 138.42l-43.76 0 0 -169.54c38.08,0 76.15,0 114.22,0l0 35.29 -70.46 0 0 33.78 64.18 0 0 35.14 -64.18 0 0 65.33zm-114.62 -138.42c0,4.01 1.43,7.35 4.25,10.02 2.83,2.62 6.17,3.93 9.94,3.93 3.82,0 7.04,-1.31 9.62,-3.93 2.58,-2.67 3.89,-6.01 3.89,-10.02 0,-4.14 -1.31,-7.55 -3.89,-10.33 -2.58,-2.75 -5.8,-4.14 -9.62,-4.14 -3.77,0 -7.11,1.39 -9.94,4.14 -2.82,2.78 -4.25,6.19 -4.25,10.33zm113.39 -170.09c-61.57,0 -117.53,25.19 -158.11,65.78 -40.59,40.58 -65.78,96.54 -65.78,158.09 0,61.57 25.19,117.53 65.78,158.11 40.58,40.59 96.54,65.78 158.09,65.78 61.57,0 117.53,-25.19 158.11,-65.78 40.59,-40.58 65.78,-96.54 65.78,-158.09 0,-61.57 -25.19,-117.54 -65.78,-158.11 -40.58,-40.59 -96.54,-65.78 -158.09,-65.78z"/>
 </g>
</svg>
