<?xml version="1.0" encoding="iso-8859-1"?>
<!-- Generator: Adobe Illustrator 19.0.0, SVG Export Plug-In . SVG Version: 6.00 Build 0)  -->
<svg version="1.1" id="Layer_1" xmlns="http://www.w3.org/2000/svg" xmlns:xlink="http://www.w3.org/1999/xlink" x="0px" y="0px"
	 viewBox="0 0 453 453" style="enable-background:new 0 0 453 453;" xml:space="preserve">
<circle style="fill:#06C67C;" cx="226.4" cy="226.6" r="226.4"/>
<path style="fill:#0FB57E;" d="M66.4,66.6c88-88.8,232-88.8,320,0c88.8,88,88.8,232,0,320"/>
<g>
	<path style="fill:#FFFBCA;" d="M234.4,365C162.4,365,96,302.6,96,226.6S162.4,88.2,234.4,88.2v64c-40,0-74.4,33.6-74.4,74.4
		s34.4,74.4,74.4,74.4V365z"/>
	<circle style="fill:#FFFBCA;" cx="88" cy="108.2" r="20"/>
</g>
<path style="fill:#E8DD91;" d="M160,226.6c0-5.6,0.8-11.2,1.6-16.8c-21.6,12-44,20.8-65.6,25.6c4.8,72.8,66.4,129.6,138.4,129.6v-64
	C194.4,301,160,267.4,160,226.6z"/>
<path style="fill:#1DDD98;" d="M298.4,305V102.6c0-12-7.2-13.6-16-13.6s-16,1.6-16,13.6V305c-8,5.6-16.8,16.8-16.8,29.6
	c0,18.4,16,33.6,34.4,33.6s32.8-15.2,32.8-33.6C316.8,321.8,306.4,309,298.4,305z"/>
<g>
</g>
<g>
</g>
<g>
</g>
<g>
</g>
<g>
</g>
<g>
</g>
<g>
</g>
<g>
</g>
<g>
</g>
<g>
</g>
<g>
</g>
<g>
</g>
<g>
</g>
<g>
</g>
<g>
</g>
</svg>
