<svg id="Layer_1" data-name="Layer 1" xmlns="http://www.w3.org/2000/svg" viewBox="0 0 400 300" width="406" height="306" class="illustration styles_illustrationTablet__1DWOa"><path d="M115.66,54.58C86,66.33,64.05,96.13,59.72,132.17c-3.66,30.37,5.07,63.93,56.43,73.49,99.95,18.61,193.56,23.91,217.46-26.29S350.15,43.19,299.43,37.63C259.11,33.21,173.53,31.64,115.66,54.58Z" fill="#e6e6e6" opacity="0.3"></path><path d="M171.88,68.21V174.53a6.7,6.7,0,0,1-6.69,6.69h0a6.69,6.69,0,0,1-6.69-6.69v-7.91" fill="none" stroke="#24285b" stroke-miterlimit="10" stroke-width="2"></path><rect x="169.64" y="28.24" width="4.99" height="17.71" fill="#ffd200"></rect><path d="M197.37,143.63s3.43,24.32-9.5,23.12-13-19.79-13-19.79L168.71,149s-1.44,29.46,20.59,28.26,28.84-16.82,28.84-16.82Z" fill="#68e1fd"></path><path d="M197.37,143.63s3.43,24.32-9.5,23.12-13-19.79-13-19.79L168.71,149s-1.44,29.46,20.59,28.26,28.84-16.82,28.84-16.82Z" fill="#fff" opacity="0.46"></path><ellipse cx="237.82" cy="256.4" rx="101.31" ry="15.97" fill="#e6e6e6" opacity="0.3"></ellipse><path d="M260.37,38.77a7.12,7.12,0,0,0-8.31-7.06,9.66,9.66,0,0,0-8.51-5.09l-.35,0a11.46,11.46,0,1,0-22.21,0l-.35,0a9.66,9.66,0,1,0,0,19.31h33.5v-.07A7.15,7.15,0,0,0,260.37,38.77Z" fill="#efefef"></path><path d="M331,136.07a5.33,5.33,0,0,0-5.32-5.33,4.91,4.91,0,0,0-.86.08,7.17,7.17,0,0,0-6.32-3.78h-.27a8.27,8.27,0,0,0,.27-2.07,8.53,8.53,0,0,0-17.05,0,8.76,8.76,0,0,0,.26,2.07h-.26a7.18,7.18,0,0,0,0,14.36h24.92v-.05A5.32,5.32,0,0,0,331,136.07Z" fill="#c1c1c1" opacity="0.17"></path><path d="M126.67,141.31a6.88,6.88,0,0,0-6.87-6.87,6.72,6.72,0,0,0-1.1.1,9.24,9.24,0,0,0-8.15-4.87h-.34a11,11,0,1,0-21.29,0h-.34a9.25,9.25,0,0,0,0,18.5H120.7v-.06A6.87,6.87,0,0,0,126.67,141.31Z" fill="#c1c1c1" opacity="0.17"></path><path d="M282.3,247.35s-8.21-2.24-10-9.88c0,0,12.72-2.58,13.08,10.55Z" fill="#68e1fd" opacity="0.58"></path><path d="M283.31,246.53s-5.74-9.06-.69-17.54c0,0,9.67,6.14,5.38,17.56Z" fill="#68e1fd" opacity="0.73"></path><path d="M284.79,246.54s3-9.58,12.19-11.39c0,0,1.72,6.22-5.93,11.42Z" fill="#68e1fd"></path><polygon points="278.83 246.32 280.5 257.71 290.98 257.75 292.52 246.38 278.83 246.32" fill="#24285b"></polygon><polygon points="242.72 218.1 250.1 251.65 245.81 251.65 231.45 218.1 242.72 218.1" fill="#f4a28c"></polygon><polygon points="218.7 214.03 210.83 251.65 206.51 251.65 207.16 213.76 218.7 214.03" fill="#f4a28c"></polygon><path d="M221.54,88.07a30.06,30.06,0,0,0-2.41,7.64,2.42,2.42,0,0,0,2.17,2.66,5.34,5.34,0,0,0,5.32-2.32l2.81-3.45a4.33,4.33,0,0,0-.19-5C227.37,84.83,222.66,85.36,221.54,88.07Z" fill="#f4a28c"></path><polygon points="241.8 178.38 254.48 236.03 229.5 235.49 218.7 191.63 224.26 177.81 241.8 178.38" fill="#24285b"></polygon><polygon points="228.37 93.39 229.5 109.15 220.77 109.15 223.39 97.97 228.37 93.39" fill="#f4a28c"></polygon><polygon points="202.41 176.78 197.47 236.03 221.94 236.03 225.14 186.33 237.32 176.78 202.41 176.78" fill="#24285b"></polygon><path d="M234.36,108.87a23.89,23.89,0,0,1,16,5.48c5.15,4.36,9.45,11.89,6.12,24.52-6.67,25.27-14.66,39.51-14.66,39.51l-39.39-1.6s1.3-17-3.26-27.15-8.94-35.85,21.62-40.48Z" fill="#68e1fd"></path><path d="M220.38,90.89l-1.9,1.27a.78.78,0,0,0,0,1.31l1.61,1Z" fill="#f4a28c"></path><path d="M238.58,119.21s-10.14,6.19-9.08,15.16,28.13,30.32-26.93,38.56l-.16,3.85,39.39,1.6,8.3-14,6.4-15.13Z" opacity="0.08"></path><path d="M223.31,98.29a5.88,5.88,0,0,0,2.85-1.36s.56,3.41-3.6,4.56Z" fill="#ce8172" opacity="0.31"></path><path d="M225.52,93.2s.68-1.73,1.94-1.11.29,3.12-1.57,2.7Z" fill="#f4a28c"></path><path d="M250.1,251.65s2.39,3,5.44,2.88,3.49,4.16-1.41,3.71a27.63,27.63,0,0,1-4.52-.77,8,8,0,0,0-4.14.14,1.3,1.3,0,0,1-1.39-.56c-1.4-1.63,2-5.4,2-5.4Z" fill="#68e1fd"></path><path d="M206.83,251.65s-2.39,3-5.44,2.88-3.49,4.16,1.41,3.71a27.63,27.63,0,0,0,4.52-.77,8,8,0,0,1,4.14.14,1.32,1.32,0,0,0,1.4-.56c1.39-1.63-2-5.4-2-5.4Z" fill="#68e1fd"></path><path d="M240.84,115.86a7.68,7.68,0,0,1,10.91-1c6.37,5.33,15.64,15.82,15.16,31.47-.74,23.74-17.23,34.35-52.29,23.77l1.75-6.3s21.54,6,32.94-7.31C259.82,144.18,225.11,135.5,240.84,115.86Z" fill="#68e1fd"></path><path d="M240.84,115.86a7.68,7.68,0,0,1,10.91-1c6.37,5.33,15.64,15.82,15.16,31.47-.74,23.74-17.23,34.35-52.29,23.77l1.75-6.3s21.54,6,32.94-7.31C259.82,144.18,225.11,135.5,240.84,115.86Z" fill="#fff" opacity="0.46"></path><path d="M222.56,88.22a14.28,14.28,0,0,0,4.21,1.92s-1.34,5.27,2,8.27c0,0,7-5.58,3.8-10.46-2.67-4.08-4.51-7.46-8.89-6.08A3.62,3.62,0,0,0,222.56,88.22Z" fill="#ffd200"></path><circle cx="235.98" cy="87.03" r="4.79" fill="#ffd200"></circle><path d="M216.08,164.8s-8.6-3.61-9.57,0,8.11,5.25,8.11,5.25Z" fill="#f4a28c"></path><path d="M216.08,110.09s.15-3.18,5-4.08,12.39-3.63,13.26,2.86Z" fill="#68e1fd"></path><path d="M216.08,110.09s.15-3.18,5-4.08,12.39-3.63,13.26,2.86Z" fill="#fff" opacity="0.46"></path><path d="M225.52,92.66s1.09-1.85,2.51-.84.34,3.29-2,3.29Z" fill="#f4a28c"></path><path d="M173.88,147.3s-.63-10.11-5-6.71.51,8.21.51,8.21Z" fill="#f4a28c"></path><path d="M99.49,77.64H244.27L224,59.19a77.47,77.47,0,0,0-104.17,0Z" fill="#68e1fd"></path></svg>