<svg xmlns="http://www.w3.org/2000/svg" shape-rendering="geometricPrecision" text-rendering="geometricPrecision" image-rendering="optimizeQuality" fill-rule="evenodd" clip-rule="evenodd" viewBox="0 0 512 512"><path fill-rule="nonzero" d="M255.99 0c70.43 0 134.44 28.8 180.82 75.19C483.2 121.57 512 185.58 512 255.99c0 70.43-28.8 134.44-75.19 180.82C390.43 483.2 326.42 512 256.01 512c-70.43 0-134.44-28.8-180.82-75.19C28.8 390.43 0 326.42 0 256.01c0-70.43 28.8-134.44 75.19-180.82C121.57 28.8 185.58 0 255.99 0zM109.85 202.39c0-6.15 1.51-11.72 4.57-16.77 3.02-5.04 7.04-9.1 12.04-12.12 5.01-3.02 10.53-4.53 16.58-4.53 5.99 0 11.4 1.51 16.29 4.53 4.93 3.02 8.82 7.08 11.77 12.12 2.97 5.05 4.45 10.58 4.45 16.66 0 6.12-1.48 11.68-4.45 16.69-2.95 5-6.84 8.98-11.77 11.92-4.89 2.98-10.3 4.45-16.29 4.45-6.05 0-11.57-1.47-16.58-4.45-5-2.94-9.02-6.92-12.04-11.92-3.06-5.01-4.57-10.53-4.57-16.58zm19 0c0 4.02 1.43 7.35 4.25 10.02 2.82 2.62 6.16 3.94 9.94 3.94 3.81 0 7.03-1.32 9.61-3.94 2.59-2.67 3.89-6 3.89-10.02 0-4.13-1.3-7.55-3.89-10.33-2.58-2.74-5.8-4.13-9.61-4.13-3.78 0-7.12 1.39-9.94 4.13-2.82 2.78-4.25 6.2-4.25 10.33zm206.9 80.09c-.47 11.96-3.66 22.49-9.54 31.63-5.92 9.1-14.07 16.21-24.52 21.34-10.45 5.13-22.73 7.71-36.84 7.71-15.3 0-28.38-3.37-39.27-10.09-10.85-6.72-19.15-16.3-24.84-28.81-5.72-12.48-8.54-27.39-8.54-44.72v-6.87c0-17.37 2.98-32.31 8.94-44.83 6-12.48 14.35-22.1 25.08-28.85 10.77-6.76 23.41-10.14 37.91-10.14 15.06 0 27.74 2.7 38.03 8.15 10.26 5.44 18.25 12.83 23.85 22.21 5.64 9.43 8.94 20 9.98 31.8h-43.56c-.16-8.82-2.3-15.42-6.4-19.79-4.13-4.34-11.4-6.52-21.9-6.52-6.28 0-11.48 1.51-15.53 4.49-4.1 2.98-7.12 7.95-9.11 14.91-1.95 6.95-2.94 16.41-2.94 28.33v7.11c0 12.04.88 21.55 2.62 28.46 1.75 6.95 4.69 11.92 8.83 14.86 4.17 2.95 9.78 4.42 16.85 4.42 5.8 0 10.73-.84 14.78-2.55 4.01-1.7 7.12-4.41 9.27-8.02 2.1-3.66 3.21-8.39 3.29-14.23h43.56zM256.01 32.12c-61.57 0-117.54 25.19-158.11 65.78-40.59 40.57-65.78 96.54-65.78 158.09 0 61.57 25.19 117.53 65.78 158.11 40.57 40.59 96.54 65.78 158.09 65.78 61.57 0 117.53-25.19 158.11-65.78 40.59-40.58 65.78-96.54 65.78-158.09 0-61.57-25.19-117.54-65.78-158.11-40.58-40.59-96.54-65.78-158.09-65.78z"/></svg>